<?xml version="1.0" standalone="no"?>
<!DOCTYPE svg PUBLIC "-//W3C//DTD SVG 20010904//EN"
 "http://www.w3.org/TR/2001/REC-SVG-20010904/DTD/svg10.dtd">
<svg version="1.0" xmlns="http://www.w3.org/2000/svg"
 width="1280.000000pt" height="900.000000pt" viewBox="0 0 1280.000000 900.000000"
 preserveAspectRatio="xMidYMid meet">

<g transform="translate(0.000000,900.000000) scale(0.100000,-0.100000)"
fill="#000000" stroke="none">
<path d="M5663 8017 c-46 -29 -285 -186 -532 -350 l-449 -298 118 -272 c139
-323 139 -323 114 -312 -11 4 -75 29 -144 55 -69 27 -271 105 -448 173 l-324
126 -96 -63 c-61 -40 -124 -92 -171 -142 -41 -43 -181 -188 -310 -322 -130
-133 -237 -247 -239 -252 -2 -5 43 -128 99 -272 56 -145 128 -328 158 -408
l57 -145 94 -6 c52 -4 191 -12 308 -19 116 -7 212 -16 212 -20 0 -4 -40 -35
-90 -70 -97 -68 -93 -59 -70 -145 4 -16 43 -192 86 -390 43 -198 78 -361 79
-362 0 0 133 -24 295 -53 254 -45 319 -58 299 -61 -2 0 -136 -4 -296 -9 l-293
-8 -87 -53 c-49 -28 -89 -53 -91 -54 -5 -4 260 -1055 267 -1055 3 0 215 42
471 93 l465 92 86 54 85 54 -23 126 c-13 69 -28 149 -33 176 -30 170 -101 554
-105 572 -5 20 -12 22 -73 25 l-67 3 50 29 c28 16 51 30 53 31 1 1 -9 51 -23
111 -15 60 -35 145 -45 189 -10 44 -30 127 -44 185 -13 58 -27 121 -31 140
l-6 35 246 190 246 190 -6 80 c-3 44 -9 121 -14 170 -5 50 -14 142 -20 205 -6
63 -14 134 -17 158 -6 37 -4 42 13 42 16 0 703 -135 727 -143 5 -2 -57 -61
-139 -133 -82 -71 -161 -140 -177 -154 -31 -28 -30 -14 -63 -555 -8 -137 -20
-317 -25 -400 -5 -82 -14 -233 -20 -335 -6 -102 -12 -197 -15 -211 -3 -23 0
-27 28 -32 18 -2 272 -29 566 -58 494 -49 536 -52 560 -37 14 8 54 33 89 54
l63 38 -6 225 c-3 124 -10 389 -16 588 -9 298 -8 366 3 381 15 22 262 288 473
510 39 40 74 80 78 88 4 8 12 14 16 14 4 0 21 -80 36 -177 15 -98 31 -185 34
-194 7 -17 3 -17 324 35 75 13 137 20 137 16 0 -5 -8 -11 -17 -15 -10 -3 -69
-36 -130 -72 -100 -58 -113 -69 -117 -97 -3 -17 -12 -166 -21 -331 -9 -165
-20 -370 -25 -455 -5 -85 -10 -183 -12 -216 l-3 -62 -77 -47 c-49 -30 -80 -56
-83 -69 -3 -11 -23 -113 -44 -226 -22 -113 -65 -335 -96 -493 -31 -159 -54
-291 -51 -294 3 -3 92 10 198 30 106 20 329 61 496 92 l302 56 83 52 c45 28
84 52 86 54 2 1 41 132 86 290 46 158 103 356 128 440 l44 152 -171 -5 c-94
-2 -307 -9 -474 -14 -311 -10 -404 -11 -387 -5 10 4 125 22 510 77 l219 32 87
53 86 53 7 62 c3 33 6 105 6 158 0 53 3 151 7 218 l6 121 228 121 c125 66 269
146 321 178 l93 58 21 84 c22 87 46 188 119 505 53 227 88 374 95 397 5 15 6
29 2 32 -4 2 -133 57 -287 121 -270 113 -307 128 -377 159 -18 8 -57 24 -87
36 -30 11 -73 29 -95 39 -23 10 -97 42 -166 71 -69 29 -154 65 -190 80 -36 16
-89 38 -118 49 l-52 21 -85 -53 c-47 -28 -172 -111 -278 -184 l-192 -132 -6
72 c-4 40 -12 215 -19 391 -7 175 -15 330 -19 344 -7 24 -16 28 -157 58 -82
18 -189 42 -239 53 -49 11 -196 43 -325 71 -222 48 -364 80 -455 100 -22 5
-166 37 -320 70 -243 53 -309 67 -385 86 -8 2 -52 -20 -97 -49z m297 -158
c102 -22 217 -47 255 -55 238 -51 451 -97 525 -114 47 -11 159 -36 250 -55 91
-20 240 -52 332 -73 l167 -37 5 -50 c3 -27 15 -291 26 -585 11 -294 22 -561
25 -593 l5 -59 -78 -81 c-42 -45 -131 -141 -198 -212 -66 -72 -181 -195 -255
-273 -73 -79 -148 -160 -165 -180 l-31 -37 14 -529 c7 -291 12 -531 9 -533 -4
-4 -148 7 -351 27 -55 6 -179 18 -275 28 l-175 18 2 44 c13 231 27 455 48 785
14 215 25 406 26 425 0 32 11 44 137 153 75 65 151 130 168 145 17 15 89 77
160 139 71 61 143 123 159 138 17 14 65 56 107 92 l77 67 -5 75 c-2 42 -9 154
-14 250 -6 96 -12 176 -13 178 -2 1 -115 21 -252 43 -138 22 -274 45 -304 50
-30 6 -67 10 -81 10 l-27 0 3 -87 c10 -226 24 -647 21 -649 -5 -6 -731 134
-788 152 -11 3 -88 172 -214 467 -109 254 -199 465 -201 468 -3 6 170 123 666
451 30 20 55 37 55 37 0 1 84 -17 185 -40z m2366 -873 c32 -13 123 -51 202
-85 79 -33 145 -61 147 -61 3 0 28 -11 57 -24 29 -13 91 -39 138 -59 47 -20
157 -66 245 -102 88 -37 176 -74 195 -82 84 -35 120 -53 120 -60 0 -5 -23
-105 -50 -223 -28 -118 -57 -244 -65 -280 -19 -87 -75 -313 -78 -314 -5 -2
-120 -61 -227 -118 -458 -242 -430 -225 -430 -257 0 -50 -22 -496 -24 -499
-10 -10 -440 -72 -447 -64 -3 4 -2 57 2 117 4 61 12 202 18 315 6 113 14 241
17 285 l7 80 141 71 c432 217 569 290 576 309 5 11 20 103 35 205 14 102 28
192 31 201 5 17 -1 18 -361 86 -44 8 -119 23 -167 32 -48 10 -89 16 -91 15 -2
-2 0 -38 4 -81 4 -43 10 -116 13 -163 3 -47 9 -122 12 -167 l7 -83 -26 0 c-14
0 -47 -4 -74 -10 -67 -14 -289 -50 -306 -50 -16 0 -23 33 -87 440 -23 140 -45
274 -49 298 l-9 42 97 67 c172 120 356 243 362 243 3 0 32 -11 65 -24z m-4150
-85 c71 -27 194 -74 274 -106 80 -31 280 -108 445 -172 165 -63 305 -121 311
-129 6 -7 14 -51 17 -96 4 -46 11 -123 16 -173 5 -49 19 -189 30 -310 11 -121
23 -241 25 -266 5 -52 16 -40 -139 -159 -110 -85 -349 -272 -358 -280 -4 -3 6
-65 23 -136 17 -71 45 -187 62 -257 16 -71 28 -130 26 -132 -2 -2 -23 0 -48 5
-25 4 -134 23 -243 41 l-197 33 -9 36 c-5 19 -16 69 -25 110 -9 41 -37 167
-62 280 l-45 205 23 17 c46 34 217 158 378 273 91 65 167 120 168 121 2 1 1
90 -3 197 l-8 194 -61 16 c-66 16 -516 133 -555 144 -22 6 -23 4 -19 -33 2
-21 24 -155 48 -296 25 -141 42 -259 40 -261 -5 -4 -219 6 -408 18 -93 6 -104
9 -112 29 -5 11 -61 154 -123 316 l-114 295 35 40 c37 43 471 485 476 485 1 0
61 -22 132 -49z m2340 -172 l62 -11 7 -131 c4 -73 5 -143 4 -157 -3 -15 -32
-49 -84 -93 l-80 -69 -6 73 c-4 41 -10 147 -13 237 l-7 162 27 0 c15 0 55 -5
90 -11z m2047 -598 l24 -10 -14 -88 c-13 -82 -33 -126 -50 -110 -8 8 -22 119
-22 180 -1 40 13 47 62 28z m-4082 -156 c22 -6 27 -13 33 -52 3 -25 6 -67 6
-94 0 -42 -4 -50 -30 -69 -16 -12 -30 -20 -30 -18 0 2 -9 53 -20 113 -24 135
-24 138 -2 131 9 -3 29 -8 43 -11z m4134 -1692 c-7 -27 -43 -151 -80 -278 -37
-126 -68 -237 -71 -245 -4 -17 -8 -18 -433 -96 -134 -25 -245 -43 -248 -41 -8
9 122 666 134 678 5 4 152 11 328 16 176 5 334 10 352 11 l32 2 -14 -47z
m-3590 -45 c2 -13 18 -99 35 -193 17 -93 40 -221 52 -283 11 -62 19 -114 17
-116 -9 -6 -631 -127 -635 -123 -7 7 -174 679 -174 700 0 15 11 17 78 18 42 1
163 5 267 8 365 14 354 14 360 -11z"/>
<path d="M6885 4089 c-55 -4 -194 -12 -310 -18 -330 -18 -547 -31 -715 -42
l-154 -10 -83 -52 c-60 -37 -81 -56 -77 -67 3 -8 103 -274 221 -590 119 -316
216 -576 217 -577 1 -1 105 19 231 43 127 25 370 72 540 104 171 33 326 65
345 70 19 6 70 32 112 59 l77 50 -20 68 c-10 37 -76 268 -146 513 -69 245
-129 447 -132 450 -3 3 -51 3 -106 -1z m98 -531 c59 -204 105 -373 103 -376
-8 -8 -825 -167 -830 -161 -1 2 -31 81 -65 174 -35 94 -90 242 -123 330 -83
223 -128 348 -125 351 1 1 133 9 292 18 160 10 344 21 410 25 66 5 145 9 176
10 l56 1 106 -372z"/>
</g>
</svg>
